PathFileType	4	(X/Y/Z)	c:/Users/goper/Files/vsCode/490R/osim_files/C15/C15_Static01.trc
DataRate	CameraRate	NumFrames	NumMarkers	Units                	OrigDataRate	OrigDataStartFrame	OrigNumFrames
250.00	250.00	8	36	mm	250.0	2788	3717
                Frame#	Time	LPSIS			LASIS			LTH1			LTH2			LTH3			LTH4			LLFE			LMFE			LSH1			LSH2			LSH3			LSH4			LLMAL			LMMAL			LCAL			LMTP5			LTOE			LMTP1			RPSIS			RASIS			RTH1			RTH2			RTH3			RTH4			RLFE			RMFE			RSH1			RSH2			RSH3			RSH4			RLMAL			RMMAL			RCAL			RMTP1			RTOE			RMTP5		
		X1	Y1	Z1	X2	Y2	Z2	X3	Y3	Z3	X4	Y4	Z4	X5	Y5	Z5	X6	Y6	Z6	X7	Y7	Z7	X8	Y8	Z8	X9	Y9	Z9	X10	Y10	Z10	X11	Y11	Z11	X12	Y12	Z12	X13	Y13	Z13	X14	Y14	Z14	X15	Y15	Z15	X16	Y16	Z16	X17	Y17	Z17	X18	Y18	Z18	X19	Y19	Z19	X20	Y20	Z20	X21	Y21	Z21	X22	Y22	Z22	X23	Y23	Z23	X24	Y24	Z24	X25	Y25	Z25	X26	Y26	Z26	X27	Y27	Z27	X28	Y28	Z28	X29	Y29	Z29	X30	Y30	Z30	X31	Y31	Z31	X32	Y32	Z32	X33	Y33	Z33	X34	Y34	Z34	X35	Y35	Z35	X36	Y36	Z36

2788	11.14800	-379.59555	1025.18286	445.49661	-220.40211	1003.07141	363.19073	-293.68994	625.90900	281.78024	-300.28876	580.17493	291.97659	-242.44119	627.12262	292.00024	-247.88596	581.75970	297.71658	-309.35370	500.82581	310.18729	-290.78546	475.59689	427.08661	-383.95438	397.32855	300.37238	-387.61075	354.05756	290.96774	-323.13730	390.21017	288.71747	-334.87875	347.25629	280.89496	-372.64325	88.81985	323.25607	-341.12216	103.99033	409.78635	-426.73459	58.42587	376.27118	-259.66302	36.50574	276.18616	-192.60963	57.46386	328.23593	-217.91113	38.53469	389.16864	-366.45621	1025.55811	563.37708	-205.95964	1004.97205	614.91895	-291.83597	645.70837	687.40833	-292.43341	599.48273	681.84357	-231.68748	639.48920	680.49042	-241.20934	592.51843	679.94531	-287.82458	497.30380	660.79156	-298.16983	473.16519	543.04681	-382.42630	399.61276	677.78998	-385.75031	356.69528	684.38739	-321.60574	388.39731	685.55048	-334.02148	348.50742	692.63385	-377.46198	87.35911	645.27747	-337.77997	102.36487	561.44873	-432.20416	58.39187	590.65466	-225.91690	37.96913	586.42328	-201.30237	54.49449	645.00220	-272.00284	30.91632	698.77588
2789	11.15200	-379.59271	1025.17993	445.50208	-220.40640	1003.05371	363.20676	-293.66275	625.90558	281.76773	-300.27640	580.21051	291.96182	-242.44577	627.11218	292.00342	-247.87076	581.75354	297.72784	-309.34930	500.83359	310.18494	-290.79434	475.60397	427.09363	-383.96002	397.32950	300.38184	-387.62787	354.06857	290.97400	-323.12964	390.21786	288.72656	-334.87695	347.25864	280.90375	-372.63120	88.80952	323.25613	-341.12836	103.95535	409.79431	-426.74094	58.43197	376.23904	-259.39566	36.78724	276.15134	-192.60504	57.46075	328.23843	-217.91708	38.53030	389.18344	-366.44501	1025.52136	563.38892	-205.93903	1004.95813	614.93439	-291.82028	645.67078	687.41046	-292.45288	599.45172	681.85284	-231.68402	639.46643	680.51367	-241.18037	592.49274	679.95654	-287.81390	497.26761	660.80853	-298.14883	473.15552	543.04285	-382.39496	399.58804	677.80884	-385.72977	356.66895	684.40735	-321.55679	388.39340	685.57458	-334.03253	348.46677	692.64575	-377.46417	87.32980	645.29321	-337.64423	102.46975	561.39014	-432.16867	58.33840	590.66614	-225.92596	37.93203	586.44983	-201.13403	54.59201	645.09125	-271.99219	30.90528	698.79926
2790	11.15600	-379.58618	1025.18066	445.51987	-220.40808	1003.04999	363.20361	-293.67575	625.91071	281.78970	-300.24966	580.21417	291.95908	-242.42928	627.11163	291.99594	-247.90088	581.74225	297.73160	-309.34912	500.81241	310.20978	-290.79288	475.59360	427.08203	-383.91956	397.33334	300.36813	-387.63516	354.08380	290.96594	-323.11710	390.21091	288.72797	-334.86905	347.25293	280.90073	-372.63812	88.80316	323.27600	-341.10834	103.95364	409.80493	-426.73572	58.43056	376.25089	-259.39621	36.77097	276.15646	-192.59033	57.43229	328.24475	-217.88046	38.50780	389.18982	-366.36298	1025.48682	563.43140	-205.91945	1004.94659	614.94464	-291.78705	645.65070	687.43402	-292.42279	599.43445	681.86438	-231.67276	639.45520	680.50757	-241.17184	592.47974	679.95520	-287.81030	497.22089	660.82379	-298.15759	473.15375	543.05927	-382.37210	399.56180	677.82861	-385.68604	356.64740	684.41949	-321.54785	388.37112	685.56799	-334.01346	348.45776	692.66754	-377.43881	87.27883	645.31573	-337.61450	102.47079	561.39307	-432.11462	58.29655	590.67712	-225.89761	37.92663	586.43945	-201.10022	54.58527	645.09875	-271.95483	30.86393	698.79315
2791	11.16000	-379.59430	1025.19678	445.54050	-220.39868	1003.03693	363.21399	-293.68460	625.87329	281.81335	-300.32614	580.13983	292.04047	-242.43062	627.08514	292.01123	-247.87285	581.73029	297.74753	-309.33798	500.79004	310.21289	-290.78531	475.56552	427.08612	-383.91241	397.30295	300.39200	-387.62790	354.04764	290.98309	-323.11548	390.19116	288.73508	-334.85175	347.24539	280.91946	-372.50052	88.86681	323.21945	-341.08435	103.94062	409.82458	-426.70267	58.39035	376.25842	-259.38818	36.75650	276.15582	-192.58583	57.41408	328.24377	-217.90021	38.46191	389.19141	-366.36530	1025.48120	563.44690	-205.89101	1004.93597	614.95502	-291.78320	645.65283	687.44958	-292.38849	599.41992	681.88507	-231.64003	639.44904	680.52332	-241.15500	592.48096	679.97339	-287.79834	497.21857	660.84717	-298.13748	473.12784	543.07489	-382.35815	399.55334	677.83514	-385.69681	356.63541	684.41833	-321.52298	388.35483	685.57776	-333.99570	348.45242	692.68207	-377.37979	87.29493	645.32812	-337.76788	102.34208	561.46692	-432.07986	58.27384	590.69678	-225.87981	37.90780	586.45197	-201.24382	54.42268	645.03290	-271.93881	30.85643	698.80414
2792	11.16400	-379.59949	1025.17981	445.56815	-220.40285	1003.01624	363.22040	-293.67380	625.84961	281.81955	-300.32275	580.12622	292.04230	-242.44235	627.06708	292.02466	-247.90189	581.69885	297.73465	-309.35477	500.76968	310.23248	-290.78888	475.55298	427.08444	-383.89575	397.27966	300.40549	-387.62271	354.03223	291.00146	-323.08835	390.17834	288.73291	-334.86761	347.21677	280.92923	-372.56787	88.77239	323.27411	-341.06586	103.93542	409.81363	-426.68469	58.39618	376.29608	-259.36145	36.74305	276.15759	-192.58643	57.39583	328.23071	-217.86194	38.45103	389.17404	-366.37573	1025.49036	563.45093	-205.85503	1004.92670	614.95502	-291.77347	645.63690	687.45325	-292.37982	599.44238	681.89026	-231.63527	639.43811	680.52698	-241.12868	592.45465	679.97998	-287.75516	497.22968	660.84772	-298.12250	473.11893	543.09460	-382.33984	399.55576	677.84290	-385.67499	356.63278	684.42017	-321.51868	388.36337	685.58405	-333.95334	348.44662	692.66949	-377.35562	87.28804	645.33252	-337.60483	102.42566	561.41302	-432.09460	58.29842	590.69891	-225.88283	37.88123	586.44067	-201.05910	54.54286	645.07312	-271.92853	30.86130	698.80438
2793	11.16800	-379.60211	1025.18628	445.59485	-220.39828	1002.98297	363.24237	-293.68222	625.82446	281.84531	-300.32233	580.04968	292.08441	-242.46545	627.02911	292.03442	-247.90062	581.66840	297.74658	-309.32867	500.74475	310.23438	-290.77826	475.52899	427.10364	-383.91467	397.24350	300.44537	-387.60104	353.99545	291.02054	-323.11032	390.15097	288.74744	-334.85995	347.20422	280.94528	-372.62598	88.72576	323.25739	-341.06644	103.93891	409.83353	-426.69681	58.36197	376.30667	-259.35126	36.72230	276.16019	-192.59859	57.36766	328.22821	-217.85587	38.44637	389.14221	-366.39236	1025.51770	563.46515	-205.86002	1004.90723	614.97449	-291.77777	645.66656	687.46686	-292.38663	599.44958	681.92023	-231.63922	639.42859	680.53394	-241.12296	592.45935	679.98212	-287.78864	497.22244	660.84717	-298.09521	473.09921	543.11548	-382.37097	399.59155	677.85236	-385.70322	356.65384	684.41315	-321.52155	388.32858	685.59027	-333.95529	348.43240	692.67725	-377.37189	87.29743	645.34460	-337.58859	102.41888	561.41516	-432.14484	58.34024	590.69708	-225.88998	37.85709	586.41498	-201.07889	54.53925	645.08044	-271.92004	30.87614	698.81665
2794	11.17200	-379.57431	1025.17200	445.62900	-220.37427	1002.95532	363.24127	-293.67758	625.81165	281.84985	-300.26920	580.05969	292.03030	-242.47189	626.99493	292.04828	-247.90660	581.64319	297.75415	-309.33209	500.73459	310.26276	-290.75494	475.53235	427.10770	-383.94003	397.21768	300.48193	-387.60654	353.97339	291.04333	-323.12427	390.11780	288.74673	-334.85852	347.17929	280.95798	-372.62131	88.70244	323.25333	-341.04944	103.96486	409.83072	-426.70193	58.33052	376.32333	-259.35736	36.70568	276.17029	-192.58173	57.38392	328.22150	-217.86156	38.44494	389.12131	-366.43964	1025.55554	563.45551	-205.88361	1004.89459	614.98523	-291.76508	645.68903	687.47064	-292.37250	599.50031	681.91931	-231.62682	639.43939	680.54395	-241.13461	592.45685	679.98816	-287.79089	497.25848	660.80188	-298.10202	473.07608	543.13666	-382.40796	399.61545	677.85406	-385.73029	356.68457	684.37390	-321.51541	388.34570	685.59485	-333.93945	348.44650	692.65387	-377.37961	87.32171	645.33173	-337.57761	102.39948	561.42163	-432.17075	58.39012	590.67615	-225.87112	37.87809	586.39264	-201.07944	54.52708	645.04370	-271.90085	30.89568	698.81769
2795	11.17600	-379.58200	1025.16663	445.65131	-220.39226	1002.95923	363.24796	-293.67508	625.78662	281.86542	-300.34491	579.99371	292.05884	-242.48375	626.99097	292.03760	-247.90340	581.63879	297.73972	-309.35257	500.69656	310.27075	-290.73981	475.53793	427.12665	-383.94595	397.18423	300.48450	-387.60464	353.96161	291.05121	-323.11469	390.09482	288.74234	-334.85818	347.16528	280.96713	-372.55835	88.71790	323.30737	-341.01575	103.96843	409.81223	-426.64612	58.29888	376.34042	-259.33353	36.69834	276.17563	-192.56725	57.36928	328.19748	-217.81708	38.48058	389.10968	-366.43527	1025.56982	563.46216	-205.84473	1004.90350	614.96985	-291.77136	645.69232	687.47900	-292.40118	599.53662	681.91302	-231.61264	639.44781	680.52112	-241.07608	592.47632	679.96875	-287.73761	497.33252	660.82104	-298.10190	473.06976	543.14124	-382.38937	399.62961	677.84540	-385.75064	356.71506	684.33954	-321.48300	388.35007	685.56207	-333.90964	348.47256	692.63538	-377.34604	87.34208	645.30652	-337.57782	102.38403	561.43811	-432.17969	58.40665	590.67340	-225.83775	37.90286	586.36169	-201.02597	54.55857	645.03455	-271.91559	30.90169	698.82062
